/* XPM */
static char * icon2_xpm[] = {
"24 24 16 1",
" 	c None",
".	c #020202",
"+	c #722222",
"@	c #2E6A0E",
"#	c #5A1E1E",
"$	c #1E460A",
"%	c #FED23E",
"&	c #482812",
"*	c #8E5A16",
"=	c #421A1A",
"-	c #AE2E2E",
";	c #5E420E",
">	c #7E5216",
",	c #8A2A2A",
"'	c #6E4A12",
")	c #D67E32",
"........................",
"..........$.............",
".........@$),...........",
".........$$-,...#.......",
".........-@+#...........",
"......+..#-,+...........",
"........#++#++..........",
"........=#+,=,#.........",
".....+.,,++#++,=........",
"......#,,+=-,.++=.......",
".......-##.#...+........",
".....+.....,..%...+.....",
".....#.....@..,.........",
"........+,**++......=...",
"........-,$@==..........",
"........,+,@+'...##.....",
"........'>+,**..........",
"..=.....*>@-@...........",
"..........$$@...........",
"..........@..$..........",
".........@....$.......+.",
".......;@.....$;;.......",
"...+..;;......;&;.......",
"..-+-+=&;&....&==#,++,.."};
